<?xml version="1.0" encoding="utf-8"?>
<!-- Generator: Adobe Illustrator 25.0.0, SVG Export Plug-In . SVG Version: 6.00 Build 0)  -->
<svg version="1.1" id="Capa_1" xmlns="http://www.w3.org/2000/svg" xmlns:xlink="http://www.w3.org/1999/xlink" x="0px" y="0px"
	 viewBox="0 0 490.8 490.8" style="enable-background:new 0 0 490.8 490.8;" xml:space="preserve">
<style type="text/css">
	.st0{fill:#042A48;}
</style>
<g>
	<path class="st0" d="M144.7,313.7l43.4,19.9l10.1,69.3c2,14.1,14.1,24.3,28,24.3c1.3,0,2.7-0.1,4.1-0.3c15.5-2.2,26.2-16.6,24-32.1
		L242,310.2c-1.4-9.5-7.5-17.7-16.2-21.7l-45.1-20.7c0-0.2,0.1-0.4,0.1-0.7l0.2-53c-26.3-38.5-20.6-87.4-17.7-103.3l-56.5-4.9
		c1,18.6,0.2,59.2-22.8,89.4l-0.1,20.3l-22.1-27l11.6-6.3c18.2-26.9,18-63.2,17.1-77.8l-19.5-1.7c-7.8-0.7-14.8,4.7-16,12.4l-4,24
		L12.7,160c-6.4,3.5-10.8,9.6-12.2,16.7c-1.4,7.1,0.5,14.4,5.1,20l56.4,68.8c4.8,5.9,11.8,8.9,18.8,8.9c1.2,0,2.4-0.4,3.6-0.6
		c0.2,1.2,0.3,2.5,0.5,3.6c0,1-0.1,2.1-0.1,3.1l7.1,87L75,454.8c-3,15.4,7.1,30.2,22.4,33.2c1.8,0.3,3.6,0.5,5.4,0.5
		c13.3,0,25.2-9.4,27.8-23l17.6-90.9c0.5-2.5,0.6-5.1,0.4-7.7l-4.3-53.1C144.4,313.8,144.6,313.8,144.7,313.7z"/>
	<path class="st0" d="M191,200.1l25,19.7c4.3,3.4,9.6,5.2,15,5.2c0.9,0,1.7,0,2.6-0.1l63.8-6.8l-21.2,176
		c-0.8,6.7,3.9,12.7,10.6,13.5c0.5,0.1,1,0.1,1.5,0.1c6.1,0,11.3-4.5,12-10.7l22-182.5c10-3.9,16.6-14,15.4-25.1
		c-0.8-7.3-4.8-13.4-10.3-17.3l1.2-10.4l35.7,11.9c19.1,6.4,39.4,8.6,59.5,6.6l33.4-3.5c5.3-0.5,9.5-4.7,10.1-10l8.4-69.9
		c0.4-3.4-0.8-6.9-3.2-9.3c-2.4-2.5-5.9-3.7-9.3-3.3l-14.2,1.5c-29,3-58.2-3-83.7-17.2L341.5,55l0.6-4.9c0.8-6.7-3.9-12.7-10.6-13.5
		c-6.6-0.8-12.7,3.9-13.5,10.6l-14.6,121.5l-65.1,6.9l-27.8-21.9l5.6-20.3c1.2-4.3,0.4-8.9-2.1-12.5c-2.5-3.6-6.5-6-11-6.3l-23.5-2
		C177.3,123.6,171.4,166.1,191,200.1z"/>
	<path class="st0" d="M166.1,94.3c24.6-8.8,37.5-35.9,28.7-60.5C186,9.2,158.9-3.7,134.3,5.1c-24.6,8.8-37.5,35.8-28.7,60.5
		C114.4,90.2,141.4,103.1,166.1,94.3z"/>
	<path class="st0" d="M484.5,240.7c-3.9-1.5-8.3-0.6-11.1,2.4l-56,58.2c-2.2,2.3-4.9,4.3-7.8,5.7l-53.2,26.1
		c-6.6,3.2-11.6,8.9-14,15.8l-16.3,46.8c-2.7,7.9-8.8,14.1-16.6,16.9l-126.1,46.3c-2.3,0.8-4.3,2.4-5.6,4.4l-11.5,16.9
		c-1,1.5-1.1,3.5-0.3,5.2c0.9,1.6,2.6,2.7,4.4,2.7h293.8c14.7,0,26.6-11.9,26.6-26.6V250.2C490.8,246,488.3,242.3,484.5,240.7z"/>
</g>
</svg>
