<?xml version="1.0" encoding="utf-8"?>
<!-- Generator: Adobe Illustrator 25.0.0, SVG Export Plug-In . SVG Version: 6.00 Build 0)  -->
<svg version="1.1" id="bold" xmlns="http://www.w3.org/2000/svg" xmlns:xlink="http://www.w3.org/1999/xlink" x="0px" y="0px"
	 viewBox="0 0 512 512" style="enable-background:new 0 0 512 512;" xml:space="preserve">
<style type="text/css">
	.st0{fill:#042A48;}
</style>
<path class="st0" d="M256,73.7c-8.8,0-16-7.2-16-16V16c0-8.8,7.2-16,16-16c8.8,0,16,7.2,16,16v41.7C272,66.6,264.8,73.7,256,73.7z"
	/>
<path class="st0" d="M396.2,131.8c-4.1,0-8.2-1.6-11.3-4.7c-6.3-6.3-6.3-16.4,0-22.6L414.4,75c6.3-6.3,16.4-6.3,22.6,0
	c6.3,6.3,6.3,16.4,0,22.6l-29.5,29.5C404.4,130.2,400.3,131.8,396.2,131.8z"/>
<path class="st0" d="M496,272h-41.7c-8.8,0-16-7.2-16-16c0-8.8,7.2-16,16-16H496c8.8,0,16,7.2,16,16C512,264.8,504.8,272,496,272z"
	/>
<path class="st0" d="M425.7,441.7c-4.1,0-8.2-1.6-11.3-4.7l-29.5-29.5c-6.3-6.3-6.3-16.4,0-22.6c6.3-6.3,16.4-6.3,22.6,0l29.5,29.5
	c6.3,6.3,6.3,16.4,0,22.6C433.9,440.1,429.8,441.7,425.7,441.7z"/>
<path class="st0" d="M86.3,441.7c-4.1,0-8.2-1.6-11.3-4.7c-6.3-6.3-6.3-16.4,0-22.6l29.5-29.5c6.3-6.3,16.4-6.3,22.6,0
	c6.3,6.3,6.3,16.4,0,22.6L97.6,437C94.5,440.1,90.4,441.7,86.3,441.7z"/>
<path class="st0" d="M57.7,272H16c-8.8,0-16-7.2-16-16c0-8.8,7.2-16,16-16h41.7c8.8,0,16,7.2,16,16C73.7,264.8,66.6,272,57.7,272z"
	/>
<path class="st0" d="M115.8,131.8c-4.1,0-8.2-1.6-11.3-4.7L75,97.6c-6.3-6.3-6.3-16.4,0-22.6c6.3-6.3,16.4-6.3,22.6,0l29.5,29.5
	c6.3,6.3,6.3,16.4,0,22.6C124,130.2,119.9,131.8,115.8,131.8z"/>
<path class="st0" d="M320,448v26.7c0,20.5-16.9,37.3-37.3,37.3h-53.3c-17.9,0-37.3-13.7-37.3-43.5V448H320z"/>
<path class="st0" d="M350.1,139.9c-35-28.4-81.1-39.5-126.1-29.9c-56.5,11.7-102.4,57.8-114.1,114.3c-11.9,58,9.8,115.6,56.3,150.8
	c12.6,9.4,21.3,23.9,24.3,40.7v0.2c0.4-0.2,1.1-0.2,1.5-0.2h128c0.4,0,0.6,0,1.1,0.2V416c3-16.2,12.6-31.1,27.3-42.7
	c36.1-28.6,57-71.3,57-117.3C405.3,210.8,385.3,168.5,350.1,139.9z M336,266.7c-8.7,0-16-7.3-16-16c0-32.4-26.2-58.7-58.7-58.7
	c-8.7,0-16-7.3-16-16c0-8.7,7.3-16,16-16c49.9,0,90.7,40.7,90.7,90.7C352,259.4,344.7,266.7,336,266.7z"/>
<path class="st0" d="M190.5,416h1.5c-0.4,0-1.1,0-1.5,0.2V416z"/>
<path class="st0" d="M321.1,416v0.2c-0.4-0.2-0.6-0.2-1.1-0.2H321.1z"/>
</svg>
