<?xml version="1.0" encoding="utf-8"?>
<!-- Generator: Adobe Illustrator 25.0.0, SVG Export Plug-In . SVG Version: 6.00 Build 0)  -->
<svg version="1.1" id="Capa_1" xmlns="http://www.w3.org/2000/svg" xmlns:xlink="http://www.w3.org/1999/xlink" x="0px" y="0px"
	 viewBox="0 0 301.9 118.4" style="enable-background:new 0 0 301.9 118.4;" xml:space="preserve">
<style type="text/css">
	.st0{fill:none;}
	.st1{fill:#042A48;}
	.st2{fill:#929288;}
</style>
<image style="display:none;overflow:visible;" width="250" height="93" xlink:href="logob.png"  transform="matrix(1.171 0 0 1.171 6.6252 4.7629)">
</image>
<rect x="6.6" y="4.8" class="st0" width="292.7" height="108.9"/>
<rect x="28" y="17.6" class="st0" width="250" height="93"/>
<g>
	<path class="st1" d="M105.1,71.6c-0.3,0-0.6-0.1-0.8-0.3c-0.2-0.2-0.3-0.5-0.3-0.8v-29c0-0.3,0.1-0.6,0.3-0.8
		c0.2-0.2,0.5-0.3,0.8-0.3h3.5c0.4,0,0.7,0.1,0.9,0.3c0.2,0.2,0.3,0.4,0.4,0.5l8.6,16l8.7-16c0.1-0.1,0.2-0.3,0.4-0.5
		c0.2-0.2,0.5-0.3,0.9-0.3h3.5c0.3,0,0.6,0.1,0.8,0.3c0.2,0.2,0.3,0.5,0.3,0.8v29c0,0.3-0.1,0.5-0.3,0.8c-0.2,0.2-0.5,0.3-0.8,0.3
		h-3.7c-0.3,0-0.6-0.1-0.8-0.3c-0.2-0.2-0.3-0.5-0.3-0.8V51.3L121,63.2c-0.1,0.3-0.3,0.5-0.6,0.7c-0.2,0.2-0.5,0.3-0.9,0.3h-1.8
		c-0.4,0-0.7-0.1-1-0.3s-0.4-0.4-0.6-0.7l-6.2-11.9v19.3c0,0.3-0.1,0.5-0.3,0.8c-0.2,0.2-0.5,0.3-0.8,0.3H105.1z"/>
	<path class="st1" d="M141.2,71.6c-0.3,0-0.5-0.1-0.8-0.3c-0.2-0.2-0.3-0.5-0.3-0.8v-29c0-0.3,0.1-0.5,0.3-0.8
		c0.2-0.2,0.5-0.3,0.8-0.3h4.2c0.3,0,0.6,0.1,0.8,0.3c0.2,0.2,0.3,0.5,0.3,0.8v29c0,0.3-0.1,0.5-0.3,0.8c-0.2,0.2-0.5,0.3-0.8,0.3
		H141.2z"/>
	<path class="st1" d="M154.5,71.6c-0.3,0-0.5-0.1-0.8-0.3c-0.2-0.2-0.3-0.5-0.3-0.8v-29c0-0.3,0.1-0.6,0.3-0.8
		c0.2-0.2,0.5-0.3,0.8-0.3h3.4c0.4,0,0.7,0.1,0.9,0.3s0.3,0.3,0.4,0.4L172,61.1V41.6c0-0.3,0.1-0.6,0.3-0.8c0.2-0.2,0.5-0.3,0.8-0.3
		h3.7c0.3,0,0.6,0.1,0.8,0.3c0.2,0.2,0.3,0.5,0.3,0.8v28.9c0,0.3-0.1,0.6-0.3,0.8c-0.2,0.2-0.5,0.3-0.8,0.3h-3.5
		c-0.4,0-0.7-0.1-0.9-0.3c-0.2-0.2-0.3-0.3-0.4-0.4l-12.8-19.5v19.1c0,0.3-0.1,0.5-0.3,0.8c-0.2,0.2-0.5,0.3-0.8,0.3H154.5z"/>
	<path class="st1" d="M185.9,71.6c-0.3,0-0.5-0.1-0.8-0.3c-0.2-0.2-0.3-0.5-0.3-0.8v-29c0-0.3,0.1-0.6,0.3-0.8
		c0.2-0.2,0.5-0.3,0.8-0.3h19.6c0.3,0,0.6,0.1,0.8,0.3c0.2,0.2,0.3,0.5,0.3,0.8v2.9c0,0.3-0.1,0.5-0.3,0.8c-0.2,0.2-0.5,0.3-0.8,0.3
		h-14.6v7.9h13.7c0.3,0,0.6,0.1,0.8,0.3c0.2,0.2,0.3,0.5,0.3,0.8v2.8c0,0.3-0.1,0.6-0.3,0.8c-0.2,0.2-0.5,0.3-0.8,0.3h-13.7v8.1h15
		c0.3,0,0.6,0.1,0.8,0.3c0.2,0.2,0.3,0.5,0.3,0.8v2.9c0,0.3-0.1,0.5-0.3,0.8c-0.2,0.2-0.5,0.3-0.8,0.3H185.9z"/>
	<path class="st1" d="M213.6,71.6c-0.3,0-0.5-0.1-0.8-0.3c-0.2-0.2-0.3-0.5-0.3-0.8v-29c0-0.3,0.1-0.6,0.3-0.8
		c0.2-0.2,0.5-0.3,0.8-0.3h11.5c3.6,0,6.4,0.8,8.5,2.5c2.1,1.7,3.1,4.1,3.1,7.3c0,2.2-0.5,4-1.6,5.5c-1.1,1.5-2.5,2.5-4.3,3.2
		l6.5,11.3c0.1,0.2,0.1,0.3,0.1,0.5c0,0.3-0.1,0.5-0.3,0.7c-0.2,0.2-0.4,0.3-0.6,0.3h-4c-0.5,0-0.9-0.1-1.2-0.4
		c-0.3-0.3-0.5-0.5-0.6-0.8l-5.7-10.5h-6.2v10.7c0,0.3-0.1,0.5-0.3,0.8c-0.2,0.2-0.5,0.3-0.8,0.3H213.6z M218.7,54.8h6.3
		c1.8,0,3.2-0.4,4-1.2c0.9-0.8,1.3-2,1.3-3.4c0-1.5-0.4-2.6-1.3-3.5c-0.9-0.8-2.2-1.3-4.1-1.3h-6.3V54.8z"/>
	<path class="st1" d="M250.6,71.6c-0.5,0-0.8-0.1-1.1-0.4c-0.3-0.2-0.5-0.5-0.6-0.9l-9.5-28.6c-0.1-0.1-0.1-0.3-0.1-0.4
		c0-0.3,0.1-0.5,0.3-0.7c0.2-0.2,0.4-0.3,0.7-0.3h3.9c0.4,0,0.7,0.1,1,0.3c0.2,0.2,0.4,0.4,0.4,0.6l7.5,22.9l7.5-22.9
		c0.1-0.2,0.2-0.4,0.5-0.6c0.2-0.2,0.5-0.3,1-0.3h3.9c0.2,0,0.5,0.1,0.6,0.3c0.2,0.2,0.3,0.4,0.3,0.7c0,0.1,0,0.3-0.1,0.4l-9.5,28.6
		c-0.1,0.4-0.3,0.7-0.6,0.9c-0.3,0.2-0.6,0.4-1.1,0.4H250.6z"/>
	<path class="st1" d="M267.2,71.6c-0.2,0-0.5-0.1-0.6-0.3c-0.2-0.2-0.3-0.4-0.3-0.7c0-0.1,0-0.3,0.1-0.4l10.7-28.7
		c0.1-0.3,0.3-0.6,0.5-0.8c0.3-0.2,0.6-0.3,1-0.3h4.8c0.4,0,0.8,0.1,1,0.3c0.2,0.2,0.4,0.5,0.5,0.8l10.7,28.7c0,0.1,0,0.3,0,0.4
		c0,0.3-0.1,0.5-0.3,0.7c-0.2,0.2-0.4,0.3-0.6,0.3h-3.9c-0.4,0-0.7-0.1-0.9-0.3c-0.2-0.2-0.3-0.4-0.4-0.6l-2.1-5.4h-13.2l-2.1,5.4
		c-0.1,0.2-0.2,0.4-0.4,0.6c-0.2,0.2-0.5,0.3-0.9,0.3H267.2z M276.1,60.2h10.1l-5.1-13.7L276.1,60.2z"/>
</g>
<g>
	<path class="st1" d="M112.9,84.1L112.9,84.1c0,1.4-0.4,2.5-1.3,3.3s-2.1,1.2-3.6,1.2c-1.5,0-2.8-0.5-3.8-1.6c-1-1-1.4-2.4-1.4-4
		v-2.5c0-1.6,0.5-2.9,1.4-4c0.9-1,2.2-1.6,3.7-1.6c1.6,0,2.8,0.4,3.7,1.2c0.9,0.8,1.3,1.9,1.3,3.3l0,0.1h-2.1c0-0.9-0.2-1.6-0.7-2
		c-0.5-0.5-1.2-0.7-2.1-0.7c-0.9,0-1.6,0.4-2.1,1.1c-0.5,0.7-0.8,1.6-0.8,2.7v2.5c0,1.1,0.3,2,0.8,2.7c0.5,0.7,1.3,1.1,2.2,1.1
		c0.9,0,1.6-0.2,2.1-0.7c0.5-0.5,0.7-1.2,0.7-2H112.9z"/>
	<path class="st1" d="M114.4,83.4c0-1.5,0.4-2.7,1.2-3.6c0.8-0.9,1.9-1.4,3.3-1.4c1.4,0,2.5,0.5,3.3,1.4c0.8,0.9,1.2,2.1,1.2,3.6
		v0.2c0,1.5-0.4,2.7-1.2,3.6s-1.9,1.4-3.3,1.4c-1.4,0-2.5-0.5-3.3-1.4s-1.2-2.1-1.2-3.6V83.4z M116.6,83.6c0,1,0.2,1.7,0.6,2.4
		s1,0.9,1.7,0.9c0.8,0,1.3-0.3,1.7-0.9c0.4-0.6,0.6-1.4,0.6-2.3v-0.2c0-0.9-0.2-1.7-0.6-2.3c-0.4-0.6-1-0.9-1.8-0.9
		c-0.8,0-1.3,0.3-1.7,0.9c-0.4,0.6-0.6,1.4-0.6,2.3V83.6z"/>
	<path class="st1" d="M127.4,78.6l0.1,1.4c0.3-0.5,0.7-0.9,1.2-1.2c0.5-0.3,1-0.4,1.7-0.4c1,0,1.8,0.3,2.4,0.9
		c0.6,0.6,0.9,1.6,0.9,3v6.1h-2.2v-6.1c0-0.8-0.1-1.3-0.4-1.6c-0.3-0.3-0.7-0.5-1.3-0.5c-0.5,0-0.9,0.1-1.2,0.3s-0.6,0.4-0.8,0.7
		v7.2h-2.2v-9.9H127.4z"/>
	<path class="st1" d="M141.5,85.8c0-0.3-0.1-0.6-0.4-0.8c-0.3-0.2-0.8-0.4-1.6-0.6c-1.2-0.2-2-0.6-2.7-1c-0.6-0.5-0.9-1.1-0.9-1.9
		c0-0.8,0.3-1.5,1-2.1c0.7-0.6,1.6-0.9,2.8-0.9c1.2,0,2.1,0.3,2.8,0.9c0.7,0.6,1.1,1.3,1,2.2l0,0.1h-2.1c0-0.4-0.2-0.7-0.5-1
		c-0.3-0.3-0.7-0.4-1.3-0.4c-0.5,0-0.9,0.1-1.2,0.4c-0.3,0.2-0.4,0.5-0.4,0.9c0,0.3,0.1,0.6,0.4,0.8c0.3,0.2,0.8,0.4,1.6,0.5
		c1.2,0.2,2.1,0.6,2.7,1.1c0.6,0.5,0.9,1.1,0.9,1.9c0,0.9-0.4,1.6-1.1,2.2c-0.7,0.6-1.7,0.8-2.9,0.8c-1.3,0-2.3-0.3-3-1
		c-0.7-0.7-1.1-1.4-1.1-2.3l0-0.1h2.1c0,0.6,0.2,1,0.6,1.2c0.4,0.3,0.9,0.4,1.4,0.4c0.6,0,1-0.1,1.3-0.3
		C141.3,86.4,141.5,86.1,141.5,85.8z"/>
	<path class="st1" d="M151.8,87c-0.3,0.5-0.7,0.9-1.2,1.2c-0.5,0.3-1,0.4-1.7,0.4c-1.1,0-1.9-0.3-2.5-1c-0.6-0.7-0.9-1.8-0.9-3.2
		v-5.8h2.2v5.8c0,0.9,0.1,1.6,0.4,1.9c0.3,0.3,0.7,0.5,1.3,0.5c0.5,0,1-0.1,1.3-0.3c0.4-0.2,0.6-0.5,0.9-0.8v-7.1h2.2v9.9H152
		L151.8,87z"/>
	<path class="st1" d="M158.6,88.4h-2.2V74.2h2.2V88.4z"/>
	<path class="st1" d="M163.9,76.2v2.4h1.8v1.6h-1.8v5.4c0,0.4,0.1,0.7,0.3,0.9c0.2,0.2,0.4,0.3,0.7,0.3c0.1,0,0.2,0,0.4,0
		c0.1,0,0.2-0.1,0.3-0.1l0.2,1.6c-0.2,0.1-0.4,0.2-0.7,0.2c-0.3,0.1-0.5,0.1-0.8,0.1c-0.8,0-1.5-0.2-1.9-0.7
		c-0.5-0.5-0.7-1.2-0.7-2.2v-5.4h-1.5v-1.6h1.5v-2.4H163.9z"/>
	<path class="st1" d="M167,83.4c0-1.5,0.4-2.7,1.2-3.6c0.8-0.9,1.9-1.4,3.3-1.4c1.4,0,2.5,0.5,3.3,1.4c0.8,0.9,1.2,2.1,1.2,3.6v0.2
		c0,1.5-0.4,2.7-1.2,3.6s-1.9,1.4-3.3,1.4c-1.4,0-2.5-0.5-3.3-1.4s-1.2-2.1-1.2-3.6V83.4z M169.2,83.6c0,1,0.2,1.7,0.6,2.4
		s1,0.9,1.7,0.9c0.8,0,1.3-0.3,1.7-0.9c0.4-0.6,0.6-1.4,0.6-2.3v-0.2c0-0.9-0.2-1.7-0.6-2.3c-0.4-0.6-1-0.9-1.8-0.9
		c-0.8,0-1.3,0.3-1.7,0.9c-0.4,0.6-0.6,1.4-0.6,2.3V83.6z"/>
	<path class="st1" d="M182.9,80.6l-0.9,0c-0.4,0-0.8,0.1-1.1,0.3s-0.5,0.4-0.7,0.8v6.9H178v-9.9h2l0.1,1.4c0.2-0.5,0.6-0.9,1-1.2
		s0.8-0.4,1.4-0.4c0.1,0,0.3,0,0.4,0c0.1,0,0.2,0,0.3,0.1L182.9,80.6z"/>
	<path class="st1" d="M190.5,88.4c-0.1-0.2-0.1-0.5-0.2-0.7c-0.1-0.2-0.1-0.5-0.1-0.7c-0.3,0.5-0.7,0.8-1.2,1.2
		c-0.5,0.3-1.1,0.5-1.7,0.5c-1,0-1.8-0.3-2.4-0.8c-0.5-0.5-0.8-1.3-0.8-2.2c0-1,0.4-1.7,1.1-2.2c0.8-0.5,1.8-0.8,3.2-0.8h1.7v-0.9
		c0-0.5-0.2-0.9-0.5-1.2c-0.3-0.3-0.7-0.4-1.3-0.4c-0.5,0-0.9,0.1-1.2,0.4s-0.4,0.6-0.4,0.9l-2.1,0l0-0.1c0-0.8,0.3-1.5,1-2.1
		s1.7-0.9,2.9-0.9c1.1,0,2.1,0.3,2.8,0.9s1.1,1.4,1.1,2.5v4.4c0,0.4,0,0.8,0.1,1.2s0.1,0.7,0.3,1.1H190.5z M187.8,86.9
		c0.6,0,1.1-0.1,1.5-0.4s0.7-0.6,0.9-1V84h-1.8c-0.6,0-1.1,0.2-1.5,0.5s-0.5,0.7-0.5,1.1c0,0.4,0.1,0.7,0.4,0.9
		S187.3,86.9,187.8,86.9z"/>
	<path class="st1" d="M201.8,82.9v5.5h-2.2V75.2h4.6c1.5,0,2.6,0.3,3.4,1s1.2,1.6,1.2,2.9c0,0.7-0.2,1.3-0.5,1.8
		c-0.4,0.5-0.9,0.9-1.6,1.2c0.7,0.2,1.3,0.6,1.6,1.2c0.3,0.5,0.5,1.2,0.5,2v1.1c0,0.4,0,0.8,0.1,1.1c0.1,0.4,0.3,0.7,0.5,0.8v0.2
		h-2.3c-0.2-0.2-0.4-0.5-0.5-0.9c-0.1-0.4-0.1-0.9-0.1-1.3v-1.1c0-0.7-0.2-1.2-0.6-1.6c-0.4-0.4-0.9-0.6-1.6-0.6H201.8z M201.8,81.2
		h2.2c0.9,0,1.5-0.2,1.9-0.5c0.4-0.3,0.6-0.9,0.6-1.6c0-0.7-0.2-1.2-0.6-1.6s-1-0.6-1.8-0.6h-2.4V81.2z"/>
	<path class="st1" d="M213.6,76.2h-2.2v-1.9h2.2V76.2z M213.6,88.4h-2.2v-9.9h2.2V88.4z"/>
	<path class="st1" d="M215.6,83.4c0-1.5,0.4-2.7,1.2-3.6c0.8-0.9,1.9-1.4,3.3-1.4c1.4,0,2.5,0.5,3.3,1.4c0.8,0.9,1.2,2.1,1.2,3.6
		v0.2c0,1.5-0.4,2.7-1.2,3.6s-1.9,1.4-3.3,1.4c-1.4,0-2.5-0.5-3.3-1.4s-1.2-2.1-1.2-3.6V83.4z M217.9,83.6c0,1,0.2,1.7,0.6,2.4
		s1,0.9,1.7,0.9c0.8,0,1.3-0.3,1.7-0.9c0.4-0.6,0.6-1.4,0.6-2.3v-0.2c0-0.9-0.2-1.7-0.6-2.3c-0.4-0.6-1-0.9-1.8-0.9
		c-0.8,0-1.3,0.3-1.7,0.9c-0.4,0.6-0.6,1.4-0.6,2.3V83.6z"/>
	<path class="st1" d="M235.3,83.8c0,1.4-0.3,2.6-1,3.5c-0.7,0.9-1.6,1.3-2.8,1.3c-0.6,0-1.1-0.1-1.5-0.3c-0.4-0.2-0.8-0.5-1.1-0.9
		v4.8h-2.2V78.6h1.9l0.2,1.2c0.3-0.5,0.7-0.8,1.1-1.1c0.4-0.2,1-0.4,1.6-0.4c1.2,0,2.2,0.5,2.8,1.4c0.7,1,1,2.2,1,3.8V83.8z
		 M233,83.7c0-1-0.2-1.8-0.6-2.5c-0.4-0.6-0.9-1-1.7-1c-0.5,0-0.9,0.1-1.2,0.3c-0.3,0.2-0.6,0.5-0.8,0.8v4.5
		c0.2,0.3,0.5,0.6,0.8,0.8c0.3,0.2,0.7,0.3,1.2,0.3c0.8,0,1.3-0.3,1.7-0.8s0.6-1.3,0.6-2.2V83.7z"/>
	<path class="st1" d="M239.5,88.4h-2.2V74.2h2.2V88.4z"/>
	<path class="st1" d="M248,88.4c-0.1-0.2-0.1-0.5-0.2-0.7c-0.1-0.2-0.1-0.5-0.1-0.7c-0.3,0.5-0.7,0.8-1.2,1.2
		c-0.5,0.3-1.1,0.5-1.7,0.5c-1,0-1.8-0.3-2.4-0.8c-0.5-0.5-0.8-1.3-0.8-2.2c0-1,0.4-1.7,1.1-2.2c0.8-0.5,1.8-0.8,3.2-0.8h1.7v-0.9
		c0-0.5-0.2-0.9-0.5-1.2c-0.3-0.3-0.7-0.4-1.3-0.4c-0.5,0-0.9,0.1-1.2,0.4s-0.4,0.6-0.4,0.9l-2.1,0l0-0.1c0-0.8,0.3-1.5,1-2.1
		s1.7-0.9,2.9-0.9c1.1,0,2.1,0.3,2.8,0.9s1.1,1.4,1.1,2.5v4.4c0,0.4,0,0.8,0.1,1.2s0.1,0.7,0.3,1.1H248z M245.3,86.9
		c0.6,0,1.1-0.1,1.5-0.4s0.7-0.6,0.9-1V84h-1.8c-0.6,0-1.1,0.2-1.5,0.5s-0.5,0.7-0.5,1.1c0,0.4,0.1,0.7,0.4,0.9
		S244.8,86.9,245.3,86.9z"/>
	<path class="st1" d="M255,76.2v2.4h1.8v1.6H255v5.4c0,0.4,0.1,0.7,0.3,0.9c0.2,0.2,0.4,0.3,0.7,0.3c0.1,0,0.2,0,0.4,0
		c0.1,0,0.2-0.1,0.3-0.1l0.2,1.6c-0.2,0.1-0.4,0.2-0.7,0.2c-0.3,0.1-0.5,0.1-0.8,0.1c-0.8,0-1.5-0.2-1.9-0.7
		c-0.5-0.5-0.7-1.2-0.7-2.2v-5.4h-1.5v-1.6h1.5v-2.4H255z"/>
	<path class="st1" d="M262.7,88.6c-1.4,0-2.6-0.5-3.4-1.4s-1.2-2.1-1.2-3.5v-0.4c0-1.4,0.4-2.6,1.2-3.6c0.8-0.9,1.9-1.4,3.1-1.4
		c1.3,0,2.3,0.4,3,1.2c0.7,0.8,1,1.9,1,3.3v1.2h-6.1l0,0c0,0.8,0.2,1.5,0.6,2c0.4,0.5,1,0.8,1.8,0.8c0.6,0,1.1-0.1,1.6-0.2
		c0.4-0.1,0.8-0.4,1.2-0.6l0.7,1.4c-0.4,0.3-0.9,0.6-1.5,0.8C264.3,88.5,263.5,88.6,262.7,88.6z M262.5,80.2c-0.6,0-1,0.2-1.4,0.6
		s-0.6,1-0.6,1.6l0,0h3.9v-0.2c0-0.6-0.1-1.1-0.4-1.5S263.1,80.2,262.5,80.2z"/>
	<path class="st1" d="M270.3,78.6l0.1,1.4c0.3-0.5,0.7-0.9,1.2-1.2c0.5-0.3,1-0.4,1.7-0.4c1,0,1.8,0.3,2.4,0.9
		c0.6,0.6,0.9,1.6,0.9,3v6.1h-2.2v-6.1c0-0.8-0.1-1.3-0.4-1.6c-0.3-0.3-0.7-0.5-1.3-0.5c-0.5,0-0.9,0.1-1.2,0.3s-0.6,0.4-0.8,0.7
		v7.2h-2.2v-9.9H270.3z"/>
	<path class="st1" d="M284.4,85.8c0-0.3-0.1-0.6-0.4-0.8c-0.3-0.2-0.8-0.4-1.6-0.6c-1.2-0.2-2-0.6-2.7-1c-0.6-0.5-0.9-1.1-0.9-1.9
		c0-0.8,0.3-1.5,1-2.1c0.7-0.6,1.6-0.9,2.8-0.9c1.2,0,2.1,0.3,2.8,0.9c0.7,0.6,1.1,1.3,1,2.2l0,0.1h-2.1c0-0.4-0.2-0.7-0.5-1
		c-0.3-0.3-0.7-0.4-1.3-0.4c-0.5,0-0.9,0.1-1.2,0.4c-0.3,0.2-0.4,0.5-0.4,0.9c0,0.3,0.1,0.6,0.4,0.8c0.3,0.2,0.8,0.4,1.6,0.5
		c1.2,0.2,2.1,0.6,2.7,1.1c0.6,0.5,0.9,1.1,0.9,1.9c0,0.9-0.4,1.6-1.1,2.2c-0.7,0.6-1.7,0.8-2.9,0.8c-1.3,0-2.3-0.3-3-1
		c-0.7-0.7-1.1-1.4-1.1-2.3l0-0.1h2.1c0,0.6,0.2,1,0.6,1.2c0.4,0.3,0.9,0.4,1.4,0.4c0.6,0,1-0.1,1.3-0.3
		C284.3,86.4,284.4,86.1,284.4,85.8z"/>
	<path class="st1" d="M292.8,88.6c-1.4,0-2.6-0.5-3.4-1.4s-1.2-2.1-1.2-3.5v-0.4c0-1.4,0.4-2.6,1.2-3.6c0.8-0.9,1.9-1.4,3.1-1.4
		c1.3,0,2.3,0.4,3,1.2c0.7,0.8,1,1.9,1,3.3v1.2h-6.1l0,0c0,0.8,0.2,1.5,0.6,2c0.4,0.5,1,0.8,1.8,0.8c0.6,0,1.1-0.1,1.6-0.2
		c0.4-0.1,0.8-0.4,1.2-0.6l0.7,1.4c-0.4,0.3-0.9,0.6-1.5,0.8C294.3,88.5,293.6,88.6,292.8,88.6z M292.5,80.2c-0.6,0-1,0.2-1.4,0.6
		s-0.6,1-0.6,1.6l0,0h3.9v-0.2c0-0.6-0.1-1.1-0.4-1.5S293.2,80.2,292.5,80.2z"/>
</g>
<g>
	<polygon class="st2" points="35.8,88.8 51.3,82.3 51.3,60.3 43.1,75.8 	"/>
	<polygon class="st2" points="66.7,88.8 51.3,82.3 51.3,60.3 59.4,75.8 	"/>
</g>
<polygon class="st1" points="65.1,80.2 51.8,56.6 64,34.2 96.8,92.2 "/>
<polygon class="st1" points="37.4,80.2 50.7,56.6 38.5,34.2 5.7,92.2 "/>
<polygon class="st2" points="51.6,63.1 51.3,60.3 48.8,82.3 54.5,82.3 "/>
</svg>
