<?xml version="1.0" encoding="utf-8"?>
<!-- Generator: Adobe Illustrator 23.0.5, SVG Export Plug-In . SVG Version: 6.00 Build 0)  -->
<svg version="1.1" id="Capa_1" xmlns="http://www.w3.org/2000/svg" xmlns:xlink="http://www.w3.org/1999/xlink" x="0px" y="0px"
	 viewBox="0 0 479 479" style="enable-background:new 0 0 479 479;" xml:space="preserve">
<style type="text/css">
	.st0{fill:#042A48;}
</style>
<path id="XMLID_1_" class="st0" d="M445.5,184.6l3.3-59.2c0.2-4-1.9-7.7-5.5-9.5l-52.7-26.7L364,36.6c-1.8-3.5-5.5-5.7-9.5-5.5
	l-59.3,3.2L245.8,1.6c-3.3-2.2-7.6-2.2-11,0l-49.4,32.6L126.2,31c-4-0.2-7.7,1.9-9.5,5.5L90,89.2l-52.7,26.7
	c-3.5,1.8-5.7,5.5-5.5,9.5l3.3,59.2L2.5,233.9c-2.2,3.3-2.2,7.6,0,11L35,294.4l-3.3,59.2c-0.2,4,1.9,7.7,5.5,9.5l52.7,26.7
	l26.7,52.7c1.8,3.5,5.5,5.7,9.5,5.5l59.2-3.3l49.4,32.6c3.3,2.3,7.7,2.3,11,0l49.4-32.6l59.2,3.3c4,0.2,7.7-1.9,9.5-5.5l26.7-52.7
	l52.7-26.7c3.5-1.8,5.7-5.5,5.5-9.5l-3.3-59.2L478,245c2.2-3.3,2.2-7.7,0-11L445.5,184.6z M426.9,286.2c-1.2,1.8-1.8,3.9-1.6,6.1
	l3.1,56l-49.8,25.2c-1.9,1-3.4,2.5-4.4,4.4l-25.2,49.8l-56-3.1c-2.1-0.1-4.3,0.5-6.1,1.6L240.3,457l-46.7-30.8
	c-1.6-1.1-3.5-1.7-5.5-1.7h-0.5l-56,3.1l-25.2-49.8c-1-1.9-2.5-3.4-4.4-4.4l-49.9-25.1l3.1-56c0.1-2.1-0.5-4.3-1.6-6.1l-30.8-46.7
	l30.8-46.7c1.2-1.8,1.8-3.9,1.6-6.1l-3.1-56l49.8-25.2c1.9-1,3.4-2.5,4.4-4.4l25.2-49.8l56,3.1c2.1,0.1,4.3-0.5,6.1-1.6L240.3,22
	L287,52.9c1.8,1.2,3.9,1.8,6.1,1.6l56-3.1l25.2,49.8c1,1.9,2.5,3.4,4.4,4.4l49.8,25.2l-3.1,56c-0.1,2.1,0.5,4.3,1.6,6.1l30.8,46.7
	L426.9,286.2z"/>
<path class="st0" d="M387.2,388.1l-34.7,49l-66.5-2.9l-46.4,29.9L188,434.2l-60.8,3.8l-27.1-51.3l-53.7-37.5v-53.7
	c-0.4-17.9-34.8-38-35.2-55.9c-0.4-20.3,33.1-38.3,32.6-58.6c-0.4-19.1-0.8-38.3-1.3-57.4l58.8-36c13,12.7,18.9-56.1,31.9-43.4
	C150.1,60.4,232.2,8.9,255,22c16.5,9.5,28.7,11.6,42.3,24.9c14.3,13.9,40.9-13.5,55.1,0.5c15.9,15.5,16.9,39.2,32.8,54.7
	c11.3,11,46.3,2.7,50.9,29.9c3.2,19.1,2.5,44.4,4.3,67c1.3,16.3,41.1,33.5,26.1,40.5c-23,10.8-29,77.5-27.6,91.6
	C443.4,373.5,371.6,372.9,387.2,388.1z"/>
</svg>
