<?xml version="1.0" encoding="utf-8"?>
<!-- Generator: Adobe Illustrator 25.0.0, SVG Export Plug-In . SVG Version: 6.00 Build 0)  -->
<svg version="1.1" id="Capa_1" xmlns="http://www.w3.org/2000/svg" xmlns:xlink="http://www.w3.org/1999/xlink" x="0px" y="0px"
	 viewBox="0 0 512 512" style="enable-background:new 0 0 512 512;" xml:space="preserve">
<style type="text/css">
	.st0{fill:#042A48;}
</style>
<g>
	<g>
		<path class="st0" d="M277.8,215.6H241v-95.1h-80.1V83.7c0-22.3-18.1-40.4-40.4-40.4S80.1,61.3,80.1,83.7v36.8H0v271h80.1v-36.8
			c0-22.3,18.1-40.4,40.4-40.4s40.4,18.1,40.4,40.4v36.8H241v-95.1h36.8c22.3,0,40.4-18.1,40.4-40.4S300.2,215.6,277.8,215.6z"/>
	</g>
</g>
<g>
	<g>
		<path class="st0" d="M431.9,120.5V83.7c0-22.3-18.1-40.4-40.4-40.4c-22.3,0-40.4,18.1-40.4,40.4v36.8H271v65.1h6.8
			c38.8,0,70.4,31.6,70.4,70.4s-31.6,70.4-70.4,70.4H271v65.1h80.1v36.8c0,22.3,18.1,40.4,40.4,40.4c22.3,0,40.4-18.1,40.4-40.4
			v-36.8H512v-271H431.9z"/>
	</g>
</g>
</svg>
