<?xml version="1.0" encoding="utf-8"?>
<!-- Generator: Adobe Illustrator 23.0.5, SVG Export Plug-In . SVG Version: 6.00 Build 0)  -->
<svg version="1.1" id="Capa_1" xmlns="http://www.w3.org/2000/svg" xmlns:xlink="http://www.w3.org/1999/xlink" x="0px" y="0px"
	 viewBox="0 0 512 512" style="enable-background:new 0 0 512 512;" xml:space="preserve">
<style type="text/css">
	.st0{fill:#042A48;}
</style>
<g>
	<g>
		<path class="st0" d="M497,361h-46v-75c0-8.3-6.7-15-15-15H271v-60h105c8.3,0,15-6.7,15-15V15c0-8.3-6.7-15-15-15H136
			c-8.3,0-15,6.7-15,15v181c0,8.3,6.7,15,15,15h105v60H76c-8.3,0-15,6.7-15,15v75H15c-8.3,0-15,6.7-15,15v121c0,8.3,6.7,15,15,15
			h121c8.3,0,15-6.7,15-15V376c0-8.3-6.7-15-15-15H91v-60h150v60h-45c-8.3,0-15,6.7-15,15v121c0,8.3,6.7,15,15,15h120
			c8.3,0,15-6.7,15-15V376c0-8.3-6.7-15-15-15h-45v-60h150v60h-45c-8.3,0-15,6.7-15,15v121c0,8.3,6.7,15,15,15h121
			c8.3,0,15-6.7,15-15V376C512,367.7,505.3,361,497,361z M196,61h120c8.3,0,15,6.7,15,15s-6.7,15-15,15H196c-8.3,0-15-6.7-15-15
			S187.7,61,196,61z M196,151c-8.3,0-15-6.7-15-15s6.7-15,15-15h120c8.3,0,15,6.7,15,15s-6.7,15-15,15H196z"/>
	</g>
</g>
<rect x="162" y="54" class="st0" width="196" height="104"/>
</svg>
